<?xml version="1.0" encoding="UTF-8" standalone="no"?>
<!-- Created with Inkscape (http://www.inkscape.org/) -->

<svg
   width="613.28351mm"
   height="258.98108mm"
   viewBox="0 0 613.28351 258.98108"
   version="1.1"
   id="svg994"
   inkscape:version="1.1.2 (0a00cf5339, 2022-02-04)"
   sodipodi:docname="rb5_logo.svg"
   xmlns:inkscape="http://www.inkscape.org/namespaces/inkscape"
   xmlns:sodipodi="http://sodipodi.sourceforge.net/DTD/sodipodi-0.dtd"
   xmlns:xlink="http://www.w3.org/1999/xlink"
   xmlns="http://www.w3.org/2000/svg"
   xmlns:svg="http://www.w3.org/2000/svg">
  <sodipodi:namedview
     id="namedview996"
     pagecolor="#ffffff"
     bordercolor="#666666"
     borderopacity="1.0"
     inkscape:pageshadow="2"
     inkscape:pageopacity="0.0"
     inkscape:pagecheckerboard="0"
     inkscape:document-units="mm"
     showgrid="false"
     showguides="false"
     inkscape:zoom="0.32"
     inkscape:cx="985.9375"
     inkscape:cy="115.625"
     inkscape:window-width="1920"
     inkscape:window-height="1103"
     inkscape:window-x="1920"
     inkscape:window-y="0"
     inkscape:window-maximized="1"
     inkscape:current-layer="layer1" />
  <defs
     id="defs991">
    <linearGradient
       inkscape:collect="always"
       xlink:href="#linearGradient5695"
       id="linearGradient5697"
       x1="-431.04871"
       y1="3286.2119"
       x2="1398.196"
       y2="3286.2119"
       gradientUnits="userSpaceOnUse"
       gradientTransform="matrix(0.29494869,0.04444957,0.15124405,0.31774159,-543.19072,-912.05137)" />
    <linearGradient
       inkscape:collect="always"
       id="linearGradient5695">
      <stop
         style="stop-color:#00ff00;stop-opacity:1;"
         offset="0"
         id="stop5691" />
      <stop
         style="stop-color:#00ffff;stop-opacity:0.57258588"
         offset="1"
         id="stop5693" />
    </linearGradient>
  </defs>
  <g
     inkscape:label="Layer 1"
     inkscape:groupmode="layer"
     id="layer1"
     transform="translate(216.41716,-22.389029)">
    <path
       id="text4605"
       style="font-style:normal;font-weight:normal;font-size:337.629px;line-height:1.25;font-family:sans-serif;fill:url(#linearGradient5697);fill-opacity:1;stroke:none;stroke-width:8.44079"
       d="m -216.41716,22.389029 15.9272,33.46047 13.3072,0.007 13.3568,-27.04846 z m 43.13122,6.49986 -12.67778,26.96733 30.30151,0.015 -0.1819,-0.3819 2.543,0.38343 41.70908,0.0207 4.0721,-17.09351 z m 66.42437,10.01024 -3.72277,16.99429 43.951839,0.0228 -5.61723,-11.80084 z m 76.140054,11.47474 2.647384,5.56194 34.3787798,0.0181 z m -169.561214,5.91127 6.3257,13.28962 6.56291,-13.28962 z m 14.11747,0 -7.01456,14.9221 2.26188,4.75163 44.82827,0.0228 -9.37565,-19.69648 z m 35.60197,0 37.53155,5.656 1.34669,-5.656 z m 39.8942,0 -1.27486,5.82033 27.676869,4.17079 4.63485,9.7374 40.17585,0.0196 0.03,-4.01267 -21.0504,-3.17244 -5.97999,-12.56305 z m 82.761357,0 9.405109,19.75847 42.345218,0.0217 -4.942851,-18.21336 -10.3962652,-1.56684 z m 47.906635,1.7322 5.24619,18.048 57.377376,0.0289 -5.709729,-9.49968 z m 58.412971,8.80308 5.776908,9.27643 31.166569,0.015 -1.90944,-4.01164 z m -116.560844,5.39295 0.0419,3.82043 3.30367,0.002 -1.7017,-3.57447 z m -152.514719,4.28035 12.31243,25.866131 h 44.81742 l -12.31243,-25.866131 z m 111.260389,0 12.31191,25.866131 h 27.43657 l 0.19327,-25.866131 z m 41.30187,0 0.28577,25.866131 h 15.542209 L -34.585361,76.493719 Z m 19.812746,0 12.3124278,25.866131 H 30.978594 L 23.958865,76.493719 Z m 43.6578,0 7.516855,25.866131 h 5.955191 L 29.85153,83.47418 92.755183,92.953706 82.86328,76.493719 Z m 59.06823,0 10.450524,16.781413 6.541201,0.985986 3.85506,8.098732 h 44.81742 l -0.91105,-1.9141 -23.97167,-3.612694 -9.68158,-20.339337 z m 70.536775,1.86501 3.56154,7.482231 18.93477,16.51992 0.75654,0.65888 36.19262,31.57792 1.36219,1.18804 33.70699,29.40698 62.90417,9.47953 36.53008,76.74518 -0.73279,-0.11058 33.68323,29.38529 4.49945,0.67799 -12.46537,-26.18755 22.9588,3.45974 -37.39566,-78.56317 -23.97167,-3.61269 -12.29226,-25.82427 -95.88665,-14.45028 -12.11916,-25.46046 95.88665,14.45028 -11.94604,-25.09666 z m 4.76405,10.009208 6.66058,13.991913 h 9.09764 z m -337.77627,14.650273 15.03164,31.57843 h 32.6657 l 4.05299,-17.01395 -6.93291,-14.56448 z m 111.260389,0 6.92206,14.54226 -22.95881,-3.45973 9.756,20.4959 h 33.16025 l 0.23822,-31.57843 z m 28.96981,0 0.34674,31.57843 H -6.9291702 L -21.960294,103.01821 Z m 32.1448018,0 15.031125,31.57843 H 39.728447 l -8.570021,-31.57843 z m 38.7423392,0 9.178251,31.57843 h 11.928471 l -15.03164,-31.57843 z m 72.51805,0 15.03113,31.57843 h 44.81793 l -15.03112,-31.57843 z m 61.11462,0 15.03164,31.57843 h 30.05656 l -35.5601,-31.57843 z m -291.49952,17.71675 -3.03702,13.86168 h 21.9475 l -13.26379,-1.99884 z m -37.65403,15.0492 16.07912,33.77986 h 7.69256 l 8.04602,-33.77986 z m 34.35811,0 -7.40058,33.77986 h 34.56585 l -4.90875,-10.31307 23.634219,3.56206 3.21324,6.75101 h 38.81675 l 0.0884,-11.76311 -6.81354,-14.31437 6.91379,1.04179 0.0656,-8.74417 h -32.58457 l 1.97094,4.14032 -27.4743,-4.14032 z m 90.635289,0 0.10026,9.14001 38.06537283,5.73661 -7.08122103,-14.87662 z m 47.3816068,0 16.0791212,33.77986 h 23.203752 l -9.165331,-33.77986 z m 32.6682902,0 9.818522,33.77986 h 18.410245 l -3.928959,-8.25377 54.768236,8.25377 h 17.12918 L 124.21683,145.3009 61.069779,135.78416 Z m 78.758494,0 21.03696,33.77986 18.06815,5.1e-4 -9.64076,-20.25406 23.29677,3.5109 -8.10958,-17.03721 z m 60.94822,0 9.8888,20.77445 53.39675,8.04705 -32.45539,-28.8215 z m -219.447581,28.1833 0.0615,5.59656 h 6.403229 l -4.094319,-0.61702 z m -107.900909,8.37468 3.80442,7.99279 1.90428,-7.99279 z m 8.94726,0 -2.81947,12.87363 8.71368,18.30586 48.956189,7.37785 -18.3534,-38.55734 z m 58.435709,0 8.27598,17.38602 23.97166,3.6127 4.98781,10.47946 0.23771,-31.47818 z m 40.61147,0 0.43408,39.48286 2.9745,6.24872 17.354498,2.61534 H 34.050756 L 25.301938,202.30879 1.3302728,198.6966 -11.135116,172.50854 l -1.104326,-0.1664 z m 64.380568,0 23.013066,48.34692 H 63.090844 L 49.970198,172.34214 Z m 25.892477,0 14.051855,48.34692 h 77.745641 l -53.712483,-8.0946 -19.160071,-40.25232 z m 85.367916,0 23.01306,48.34692 h 7.91942 l -29.05921,-48.34692 z m 5.53248,0 30.10927,48.34692 32.18925,5.2e-4 -20.18636,-42.40775 -23.29626,-3.5109 -1.156,-2.42879 z m 72.65344,35.86448 5.94176,12.48347 44.19162,5.2e-4 -2.5275,-5.30975 z m -202.340099,17.11265 23.499342,3.54138 -1.685687,-3.54138 z m 38.110852,0 2.94504,6.18722 10.978657,1.65467 -2.128035,-7.84189 z m 16.073954,0 2.482019,8.54005 116.923094,17.62011 -15.72255,-26.16016 z m 108.492603,0 16.84807,27.05468 6.7107,1.0113 -12.46539,-26.18754 22.9588,3.45973 -2.54093,-5.33817 z m 47.80845,0 4.49275,9.43921 24.30962,3.66335 11.77241,24.73285 109.69305,16.53078 -32.97163,-29.2778 -65.89004,-9.93014 -7.21558,-15.15825 z" />
  </g>
</svg>
